<?xml version="1.0" standalone="no"?>
<!DOCTYPE svg PUBLIC "-//W3C//DTD SVG 20010904//EN"
 "http://www.w3.org/TR/2001/REC-SVG-20010904/DTD/svg10.dtd">
<svg version="1.0" xmlns="http://www.w3.org/2000/svg"
 width="300.000000pt" height="300.000000pt" viewBox="0 0 300.000000 300.000000"
 preserveAspectRatio="xMidYMid meet">
<metadata>
Created by potrace 1.10, written by Peter Selinger 2001-2011
</metadata>
<g transform="translate(0.000000,300.000000) scale(0.100000,-0.100000)"
fill="#000000" stroke="none">
<path d="M1239 2793 c-14 -21 -44 -65 -67 -98 -22 -33 -50 -91 -62 -130 -35
-114 -37 -117 -45 -58 -8 53 -31 89 -39 62 -2 -8 -22 -72 -44 -144 -54 -172
-79 -297 -108 -535 -3 -30 -13 -75 -22 -100 -20 -58 -19 -120 3 -197 21 -75
31 -48 -126 -365 -64 -130 -127 -262 -139 -292 -20 -48 -27 -55 -54 -58 -26
-3 -40 -17 -92 -90 -81 -115 -115 -199 -121 -306 -7 -107 10 -153 80 -219 99
-94 237 -116 361 -60 68 31 271 201 271 227 0 14 61 65 195 167 107 81 239
181 294 222 127 98 133 101 218 108 67 6 77 10 172 73 104 68 311 162 477 215
167 54 289 97 294 105 8 13 -22 31 -80 48 l-56 17 51 38 c70 52 70 52 -64 112
l-79 35 7 37 c3 21 6 55 6 75 0 29 8 47 36 78 45 50 37 64 -47 82 -53 11 -57
13 -44 28 8 9 15 19 15 22 0 4 -34 25 -76 48 -41 23 -93 57 -114 77 l-39 35
-3 151 c-3 128 -5 152 -19 155 -8 1 -21 -9 -29 -23 -11 -20 -16 -23 -22 -12
-6 12 -29 14 -118 9 l-110 -5 -16 38 c-8 21 -22 68 -30 104 -23 103 -28 116
-46 119 -9 2 -19 -5 -22 -15 -4 -10 -15 -29 -27 -43 l-20 -25 7 77 c12 141
-14 170 -73 83 -40 -61 -53 -67 -27 -12 9 19 14 42 11 51 -6 15 -9 15 -39 0
-18 -9 -76 -45 -128 -79 -134 -87 -161 -100 -171 -83 -10 16 -10 13 -18 163
-7 137 -19 153 -62 88z m40 -214 c6 -27 11 -60 11 -72 0 -18 -2 -19 -11 -7 -9
12 -10 10 -6 -8 7 -30 -28 -111 -37 -87 -3 9 -6 27 -6 40 0 13 -5 27 -11 31
-7 4 -9 0 -6 -12 16 -55 17 -102 3 -134 -14 -34 -14 -34 -20 -10 -3 14 -12 54
-20 90 l-14 65 5 -65 c3 -36 9 -81 14 -102 6 -24 5 -45 -3 -65 -11 -27 -12
-26 -18 30 -4 32 -11 61 -15 65 -8 7 -2 -65 10 -123 4 -20 1 -37 -9 -50 -15
-19 -15 -19 -16 10 -1 37 -28 138 -29 108 -1 -12 6 -53 14 -92 19 -90 9 -126
-16 -55 -10 27 -18 59 -18 71 -1 12 -5 24 -9 27 -11 7 3 -87 17 -113 6 -11 11
-28 11 -38 0 -26 -80 -223 -91 -223 -5 0 -9 -8 -9 -17 0 -10 -8 -38 -17 -63
l-18 -45 -12 65 -12 65 4 -85 c3 -67 0 -93 -15 -125 l-19 -40 -1 30 c-1 17 -6
41 -10 55 -6 16 -7 -2 -3 -47 6 -74 -5 -119 -18 -73 -9 33 -10 149 -2 180 l7
25 7 -25 c6 -20 7 -16 8 19 1 25 11 76 23 114 l23 70 12 -39 c13 -39 13 -39 8
21 -7 79 9 106 20 33 4 -29 10 -45 12 -34 3 10 0 38 -6 63 -10 36 -9 54 6 99
9 30 20 54 25 54 4 0 8 -21 9 -47 1 -27 5 -59 9 -73 5 -15 6 21 3 85 -5 105
-4 115 28 215 l34 105 6 -60 c6 -60 6 -60 7 21 1 52 10 107 24 150 l22 69 8
-58 c4 -32 12 -65 18 -75 9 -13 10 -10 6 17 -22 129 -21 137 20 199 l39 57 6
-68 c4 -37 12 -90 18 -118z m325 54 c-10 -8 -62 -41 -114 -75 -52 -33 -84 -57
-70 -53 14 5 60 30 103 56 42 26 77 44 77 39 0 -16 -23 -64 -52 -107 -21 -32
-50 -53 -118 -90 -50 -26 -86 -49 -81 -51 5 -2 38 12 73 30 35 18 66 34 70 36
10 5 -105 -168 -164 -246 -30 -40 -67 -76 -92 -89 -22 -12 -37 -22 -33 -23 4
0 21 7 37 15 l30 15 -12 -26 c-7 -14 -26 -32 -42 -40 -18 -8 -22 -11 -8 -8 25
6 27 1 12 -26 -10 -19 -100 -86 -100 -75 0 11 60 190 68 201 4 6 26 21 50 33
23 12 42 23 42 26 0 6 -50 -15 -67 -28 -17 -12 -16 -4 1 38 12 27 29 41 85 69
90 46 102 64 15 26 -37 -17 -68 -29 -70 -27 -2 2 6 29 19 61 21 55 25 59 104
102 46 25 85 49 88 54 6 10 -97 -35 -132 -58 -27 -17 -28 -11 -7 43 11 29 25
45 53 57 20 10 84 49 141 87 58 37 107 64 109 58 2 -6 -5 -17 -15 -24z m93
-125 c0 -78 5 -127 16 -157 l16 -45 -37 -50 -37 -51 -5 57 c-3 31 -9 60 -13
64 -4 4 -5 -24 -1 -63 l7 -71 -49 -66 c-26 -36 -49 -66 -50 -66 -1 0 -7 39
-14 88 -25 175 -34 126 -14 -73 4 -46 2 -54 -34 -103 l-40 -53 -5 33 c-4 18
-9 61 -13 96 -8 73 -25 96 -19 25 2 -26 7 -79 9 -116 l5 -69 -57 -81 -57 -82
-7 75 c-4 41 -11 86 -17 100 -12 32 -13 17 -1 -100 l9 -95 -42 -64 c-47 -73
-41 -76 -65 39 l-10 45 0 -45 c-1 -25 3 -64 7 -87 8 -40 6 -47 -37 -108 -25
-36 -46 -64 -48 -62 -2 1 1 22 7 46 6 28 6 55 -1 79 -17 61 -12 89 31 175 23
45 47 98 54 117 12 35 12 35 21 -40 l9 -75 5 100 c5 92 8 106 44 175 l40 75 8
-55 c4 -30 14 -84 22 -120 14 -64 14 -65 14 -20 1 25 -5 83 -12 130 l-13 85
28 38 28 38 4 -33 c4 -31 4 -31 6 7 1 22 13 58 26 80 l25 40 0 -65 c0 -46 3
-61 10 -50 5 8 10 44 10 79 0 61 3 69 51 143 28 43 52 78 53 78 0 0 0 -60 -1
-132 -3 -164 11 -143 21 31 6 92 12 134 26 160 l19 36 1 -60 c1 -33 6 -69 11
-80 6 -13 7 9 3 66 -5 82 -4 87 21 117 15 18 28 32 29 32 2 0 3 -51 3 -112z
m117 -19 c4 -22 20 -70 36 -106 l30 -66 -57 7 c-31 4 -59 8 -60 10 -8 7 -20
111 -16 123 9 24 20 13 26 -25 4 -21 13 -46 21 -57 12 -16 11 -5 -4 50 -12 47
-15 76 -9 88 15 28 26 20 33 -24z m-776 -144 c-16 -44 -38 -114 -49 -155 -28
-99 -81 -252 -86 -247 -2 3 5 42 16 88 11 46 30 127 41 179 27 121 51 195 59
182 3 -5 6 9 7 33 0 23 4 51 9 61 6 16 9 12 19 -21 11 -36 9 -48 -16 -120z
m1072 -42 c0 -4 -14 -31 -32 -60 l-32 -53 -76 -1 c-67 -1 -71 -2 -35 -10 22
-4 53 -6 69 -2 35 6 34 6 -34 -85 l-55 -74 -64 5 c-57 4 -200 -12 -252 -28
-27 -9 -24 -2 23 68 24 34 43 63 44 65 0 1 47 9 103 16 154 22 145 35 -11 17
-38 -4 -68 -5 -68 -2 0 4 16 31 35 61 l35 55 153 16 c185 20 197 21 197 12z
m57 -211 c1 -176 0 -189 -18 -200 -18 -12 -19 -8 -20 90 -1 82 -3 95 -10 63
-4 -22 -8 -72 -8 -111 -1 -49 -5 -75 -15 -83 -12 -10 -15 -7 -19 16 -3 24 -4
23 -6 -8 -1 -26 -8 -41 -24 -52 l-24 -15 5 81 c2 45 2 80 -1 77 -3 -3 -11 -47
-18 -97 -11 -90 -12 -91 -55 -127 l-44 -37 0 95 c0 52 -4 98 -10 101 -6 4 -10
-33 -10 -103 l0 -110 -35 -31 c-20 -17 -38 -31 -42 -31 -3 0 -3 48 1 108 4 64
3 101 -3 92 -8 -15 -23 -120 -25 -191 -2 -28 -10 -43 -43 -72 l-40 -37 3 73 3
72 -12 -77 c-11 -69 -16 -82 -49 -115 -21 -20 -39 -35 -41 -33 -4 5 6 58 43
232 8 37 21 65 37 80 l25 23 -5 -45 -6 -45 14 40 c7 22 14 48 14 57 1 9 6 20
13 24 8 5 9 -2 5 -27 -5 -24 -4 -30 3 -19 5 8 10 24 10 35 0 12 22 43 49 69
l50 49 4 -59 3 -59 2 60 c2 57 5 64 42 100 l39 38 -5 -74 c-3 -51 -1 -68 5
-54 5 11 10 31 10 44 2 59 24 148 42 171 l21 25 -6 -44 c-3 -30 -1 -40 5 -30
5 7 9 33 9 55 0 25 6 47 15 54 14 11 15 4 10 -61 -4 -47 -3 -69 3 -59 5 8 12
49 16 90 5 64 12 83 42 128 20 28 39 52 43 52 3 0 7 -85 8 -188z m-290 -120
c-31 -31 -39 -33 -120 -39 -53 -4 -84 -10 -80 -16 3 -6 34 -7 77 -3 l71 7 -58
-59 -58 -59 -107 -18 c-59 -10 -111 -22 -116 -26 -13 -12 13 -11 109 5 44 8
81 13 82 12 1 -1 -13 -14 -32 -29 -28 -23 -47 -28 -119 -33 -47 -4 -86 -11
-86 -17 0 -6 28 -8 77 -3 l78 6 -50 -44 c-42 -38 -57 -45 -95 -47 -25 -1 -35
-4 -22 -6 l23 -4 -25 -20 c-17 -13 -33 -18 -50 -13 -21 5 -28 1 -37 -20 -7
-14 -19 -27 -28 -27 -13 -1 -13 -2 1 -6 14 -3 17 -15 16 -58 l-2 -54 -45 -6
c-25 -3 -63 -9 -84 -14 -21 -5 -37 -6 -35 -2 2 3 14 23 28 43 20 30 31 38 57
38 17 0 35 4 38 10 4 6 -6 7 -26 3 -38 -7 -38 -6 21 79 l45 66 73 12 c39 6 72
14 72 17 0 3 -30 3 -66 0 l-66 -6 18 27 c49 76 87 132 89 132 1 0 58 11 125
25 113 23 155 35 119 35 -34 -1 -208 -28 -219 -35 -16 -10 -2 15 44 80 36 50
37 50 138 76 72 18 126 26 180 25 l78 -1 -33 -33z m458 -55 c74 -38 76 -47 5
-22 -23 8 -50 15 -59 14 -9 0 8 -8 37 -17 30 -9 52 -21 50 -27 -2 -5 -5 -9 -8
-9 -56 14 -123 41 -139 56 -15 13 -21 31 -21 60 l0 42 33 -31 c17 -17 64 -47
102 -66z m-1281 -73 c-123 -314 -267 -634 -285 -634 -4 0 17 53 48 118 53 111
154 346 238 550 21 51 40 91 42 88 2 -2 -17 -57 -43 -122z m121 59 c-93 -178
-127 -259 -121 -293 5 -34 3 -36 -44 -62 -28 -16 -50 -26 -50 -24 0 14 87 186
104 206 17 20 17 22 2 10 -17 -14 -18 -13 -12 7 27 86 57 139 88 160 44 29 50
28 33 -4z m1200 -79 c70 -11 114 -22 112 -28 -4 -12 -23 -13 -117 -3 -81 9
-51 -8 33 -19 l58 -7 -33 -34 c-31 -32 -36 -34 -83 -29 l-50 6 39 -13 c38 -12
38 -12 18 -31 -20 -17 -24 -17 -117 -1 -53 10 -98 15 -101 12 -6 -6 124 -37
155 -37 36 0 24 -14 -56 -69 l-77 -53 -96 6 c-62 4 -88 3 -75 -3 11 -5 52 -10
90 -11 70 -1 70 -1 48 -19 -18 -15 -30 -17 -60 -11 -61 13 -189 19 -170 8 10
-5 55 -12 102 -15 47 -3 85 -9 85 -12 0 -6 -91 -79 -117 -95 -7 -4 -30 -3 -50
3 -66 16 -104 21 -99 13 3 -5 30 -14 60 -21 l56 -12 -28 -24 c-26 -22 -33 -23
-110 -16 -45 4 -78 3 -74 -1 4 -4 40 -10 79 -14 104 -10 82 -28 -26 -22 -81 5
-84 5 -46 -7 22 -8 53 -14 69 -14 29 -1 29 -1 -15 -31 -41 -28 -51 -30 -149
-32 l-105 -2 100 -5 c97 -6 99 -6 74 -22 -19 -13 -56 -18 -162 -20 l-136 -4
49 50 50 51 98 -4 c116 -5 117 8 2 17 l-81 6 35 41 35 40 88 -2 c70 -3 80 -1
48 6 -22 5 -58 9 -80 10 l-40 0 48 47 49 46 116 -7 c64 -4 126 -10 137 -13 13
-3 17 -2 10 5 -13 12 -127 32 -191 32 l-49 1 36 32 c20 17 65 57 100 88 l65
56 64 -12 c83 -16 190 -26 170 -16 -8 5 -55 16 -105 26 -49 9 -93 19 -98 22
-4 2 11 20 33 38 35 29 45 33 66 25 14 -6 33 -10 42 -9 9 1 0 6 -22 13 l-39
12 33 28 c23 19 40 26 54 22 65 -19 189 -46 193 -42 2 2 -39 18 -92 36 l-97
32 32 33 31 32 34 -17 c19 -10 86 -26 150 -36z m-1021 -96 c-27 -46 -139 -210
-147 -215 -13 -8 -9 -1 75 125 38 56 71 102 74 102 3 0 2 -6 -2 -12z m1082
-87 c-11 -59 -12 -61 -74 -100 -34 -23 -65 -41 -69 -41 -3 0 -3 9 0 20 3 11 1
18 -4 14 -5 -3 -9 -14 -9 -24 0 -16 -56 -70 -72 -70 -3 0 0 19 6 41 9 34 20
48 62 74 29 19 55 39 60 46 5 9 9 8 15 -7 7 -19 8 -19 8 1 1 14 75 105 86 105
1 0 -3 -27 -9 -59z m-816 -13 c-10 -30 -26 -96 -36 -146 -13 -74 -21 -95 -45
-118 l-28 -27 4 39 c4 37 4 36 -8 -8 -7 -26 -23 -58 -36 -70 l-23 -23 6 35 c9
43 18 179 12 165 -3 -5 -14 -57 -26 -115 -14 -70 -28 -112 -41 -125 -20 -20
-20 -20 -15 25 4 33 3 39 -3 20 -5 -14 -9 -36 -10 -49 -1 -13 -12 -36 -26 -53
-30 -36 -30 -36 -5 54 11 40 23 121 26 180 5 81 10 108 21 108 9 0 13 -19 14
-72 l2 -73 11 71 c12 80 24 98 75 122 20 9 39 18 43 19 3 2 2 -13 -3 -34 -5
-21 -8 -47 -8 -58 1 -11 9 10 18 47 13 53 25 76 56 108 21 22 40 38 42 37 1
-2 -6 -28 -17 -59z m-595 -154 l-35 -69 0 52 c0 47 3 53 32 71 18 12 34 20 35
18 2 -1 -13 -34 -32 -72z m1512 22 c29 -10 55 -21 58 -26 3 -5 -36 -36 -87
-69 -89 -60 -93 -61 -162 -62 -39 -1 -82 -5 -96 -10 -17 -6 -1 -8 52 -5 143 6
70 -16 -162 -49 -52 -8 -96 -13 -97 -11 -9 9 93 66 120 67 38 1 141 26 112 27
-11 1 -41 -3 -67 -7 -27 -4 -48 -5 -48 -2 0 3 15 16 33 27 25 17 56 23 138 29
58 3 111 10 118 14 7 5 -30 6 -83 3 -53 -2 -96 -2 -96 1 0 3 22 19 50 37 43
28 55 31 92 25 31 -4 39 -3 28 4 -8 6 -24 11 -35 11 -18 0 -18 2 5 19 21 17
28 18 50 7 14 -8 49 -21 77 -30z m-1461 -50 c-5 -33 -13 -47 -27 -51 -31 -10
-31 -3 -2 53 15 29 29 50 31 47 2 -2 1 -24 -2 -49z m1118 22 c-5 -30 -56 -88
-77 -88 -4 0 -20 -11 -34 -24 -14 -13 -37 -30 -52 -38 -14 -7 -56 -34 -93 -60
-41 -29 -68 -42 -68 -34 0 16 74 83 157 143 32 24 82 63 111 88 29 25 55 45
57 45 3 0 2 -15 -1 -32z m-1234 -37 c0 -36 -10 -70 -36 -125 -33 -70 -39 -76
-66 -76 -16 0 -28 3 -26 8 28 53 97 202 102 220 12 38 26 24 26 -27z m188 -4
c-25 -45 -151 -217 -156 -213 -4 5 156 236 164 236 3 0 -1 -10 -8 -23z m126
-92 c-32 -43 -44 -44 -44 -6 0 23 5 31 23 34 46 9 48 7 21 -28z m1330 10 l31
-13 -35 -1 c-26 -1 -31 -4 -20 -11 13 -8 12 -10 -5 -11 -29 -3 -41 -2 -72 4
l-28 6 28 -12 c27 -13 26 -13 -44 -30 -39 -10 -103 -31 -141 -48 -38 -17 -72
-29 -74 -26 -3 2 9 10 26 17 17 7 30 20 30 30 0 13 11 19 41 24 45 7 95 31
149 70 37 27 55 27 114 1z m-1601 -54 c-29 -45 -50 -68 -59 -64 -26 10 57 133
90 133 11 0 2 -21 -31 -69z m197 18 c0 -35 -8 -51 -47 -98 -26 -31 -48 -58
-49 -59 -1 -2 -17 7 -36 20 -18 12 -35 24 -36 25 -9 4 87 118 113 135 46 27
55 23 55 -23z m130 11 c0 -19 -36 -47 -48 -36 -5 5 36 56 45 56 2 0 3 -9 3
-20z m-24 -130 c-11 -45 -24 -72 -47 -96 -18 -19 -35 -34 -38 -34 -4 1 -21 13
-39 29 l-33 28 46 59 c33 43 56 62 83 70 20 6 38 10 40 9 1 -1 -4 -30 -12 -65z
m893 54 c32 -7 30 -8 -60 -55 -81 -43 -100 -49 -158 -51 l-66 -1 55 -6 55 -6
-54 -39 c-44 -32 -61 -39 -93 -37 -51 3 -74 -12 -28 -19 l35 -5 -47 -27 c-26
-16 -53 -28 -61 -28 -8 0 -52 -11 -98 -24 l-84 -24 40 34 c22 18 51 34 65 34
14 0 32 5 40 10 11 8 8 9 -12 4 -16 -3 -28 -4 -28 -1 0 13 84 57 112 58 18 1
44 5 58 10 18 6 10 7 -27 3 -29 -2 -53 -3 -53 -1 0 3 34 30 75 61 l74 56 80 0
c44 0 82 3 84 8 3 4 -32 6 -76 4 -81 -3 -82 -3 -57 15 38 27 158 41 229 27z
m-339 -28 c0 -7 -51 -49 -112 -93 -145 -103 -142 -101 -133 -72 5 19 4 21 -4
9 -6 -8 -11 -22 -11 -30 -1 -14 -48 -56 -55 -48 -2 2 -1 31 2 64 l6 61 66 -5
c67 -4 67 -4 122 39 54 45 112 88 117 89 1 0 2 -6 2 -14z m-870 -39 c0 -4 -8
-7 -17 -5 -11 2 -17 -2 -15 -10 1 -8 -10 -30 -26 -50 -16 -20 -37 -52 -48 -69
-10 -18 -22 -33 -26 -33 -14 0 -9 9 37 72 48 66 54 85 30 94 -8 4 -15 10 -15
15 0 5 7 9 15 9 8 0 15 -5 15 -11 0 -6 7 -3 16 6 14 13 19 14 25 3 5 -7 9 -17
9 -21z m-114 14 c-7 -11 -76 -20 -76 -10 0 10 20 17 53 18 16 1 26 -3 23 -8z
m54 -32 c0 -5 -4 -7 -10 -4 -5 3 -10 3 -10 -2 0 -4 -14 -24 -31 -43 l-30 -35
20 42 c19 37 31 50 54 52 4 1 7 -4 7 -10z m125 -14 c16 -13 27 -26 25 -29 -3
-2 -21 9 -40 25 -19 15 -30 28 -25 28 6 0 23 -11 40 -24z m-237 -60 c-31 -63
-34 -65 -69 -65 l-38 0 35 57 c34 57 51 71 86 72 15 1 13 -8 -14 -64z m184
-61 c-26 -35 -49 -63 -52 -63 -3 0 -16 8 -29 18 l-23 18 48 72 47 72 28 -27
28 -26 -47 -64z m-304 32 c-12 -25 -26 -46 -30 -46 -5 0 3 23 18 51 14 28 27
49 30 46 3 -2 -5 -25 -18 -51z m729 28 c-13 -25 -134 -134 -148 -134 -4 0 -10
7 -13 16 -4 10 14 37 51 80 49 53 63 63 91 64 32 0 32 0 19 -26z m-263 -20
c15 -14 27 -27 24 -29 -6 -6 -68 36 -68 46 0 15 13 10 44 -17z m366 -4 c0 -15
-7 -20 -27 -20 l-28 1 24 19 c29 25 31 25 31 0z m-397 -33 l28 -22 -61 -67
c-34 -38 -65 -68 -68 -68 -4 0 -15 12 -25 25 -18 25 -18 25 35 89 29 35 55 65
58 65 3 1 18 -9 33 -22z m101 -40 c-1 -12 -3 -26 -3 -31 -1 -5 -8 -3 -16 4
-13 11 -26 2 -87 -59 -39 -39 -73 -70 -74 -68 -9 8 131 147 148 147 15 0 18 5
13 20 -5 14 -3 18 8 15 7 -3 12 -16 11 -28z m-389 13 c9 -15 -14 -40 -36 -40
-23 0 -24 8 -2 32 18 20 29 23 38 8z m675 -14 c0 -18 -22 -40 -95 -95 l-95
-71 -15 37 c-9 20 -12 40 -8 44 5 4 37 30 73 58 51 40 73 51 103 51 32 0 37
-3 37 -24z m-601 -50 c19 -22 -4 -29 -34 -10 -25 17 -30 26 -19 37 8 8 36 -7
53 -27z m-196 -33 c-15 -27 -27 -49 -28 -50 -1 -2 -15 3 -32 9 l-31 12 22 32
c21 34 33 41 73 43 22 1 22 1 -4 -46z m852 24 c0 -9 -4 -17 -10 -16 -5 1 -9 5
-7 10 4 17 -8 9 -116 -71 -80 -60 -108 -87 -112 -107 -7 -37 -40 -44 -40 -10
0 14 7 30 15 37 8 7 15 10 15 6 0 -3 10 3 23 13 60 52 213 160 222 157 6 -1
10 -10 10 -19z m-935 8 c0 -12 -24 -55 -32 -55 -11 0 -10 4 4 35 9 21 28 35
28 20z m168 -3 c-9 -22 -64 -101 -70 -102 -16 0 -7 22 25 65 28 38 55 61 45
37z m415 -12 c4 -15 -13 -35 -68 -85 -95 -84 -105 -64 -16 31 36 39 69 72 72
73 4 0 9 -8 12 -19z m-354 -20 l23 -20 -37 -45 c-40 -49 -40 -50 -72 -32 l-22
12 34 44 c19 24 35 48 35 52 0 14 13 10 39 -11z m138 -66 c-10 -10 -58 37 -50
48 3 6 17 -2 31 -16 14 -14 23 -29 19 -32z m541 47 c-4 -13 -192 -150 -197
-145 -3 3 4 11 15 18 10 8 55 42 99 75 84 64 89 66 83 52z m-248 -80 c0 -28
-20 4 -25 39 l-5 35 14 -30 c9 -16 15 -37 16 -44z m-586 -5 c119 -58 221 -177
261 -301 l18 -57 -25 -25 -25 -25 -7 47 c-20 148 -235 348 -388 363 -48 5 -48
5 -31 24 27 30 104 20 197 -26z m241 24 c17 -18 16 -21 -21 -64 -38 -43 -40
-44 -58 -26 -18 17 -18 19 13 64 18 25 36 46 40 46 4 0 16 -9 26 -20z m299
-26 c5 -18 -6 -31 -63 -78 -39 -31 -72 -53 -74 -48 -3 4 -6 19 -8 33 -3 21 8
36 60 83 66 58 70 59 85 10z m-605 -50 c126 -59 242 -193 271 -314 19 -79 6
-69 -29 22 -43 111 -82 162 -180 232 -90 64 -136 85 -193 86 -21 0 -38 5 -38
11 0 20 90 0 169 -37z m316 -16 c-40 -44 -55 -56 -55 -42 0 11 83 95 88 89 3
-2 -12 -24 -33 -47z m-350 -4 c132 -67 224 -173 270 -309 l19 -54 -25 -27
c-135 -145 -323 -160 -453 -36 -52 50 -66 87 -66 176 0 84 21 152 70 229 29
46 30 47 82 47 37 0 68 -8 103 -26z m380 -44 c-26 -27 -42 -37 -49 -30 -7 7 3
23 29 50 26 27 42 37 49 30 7 -7 -3 -23 -29 -50z m284 47 c-2 -2 -37 -30 -77
-62 -40 -32 -75 -55 -78 -53 -2 3 30 33 72 67 43 33 80 59 82 56 3 -3 3 -6 1
-8z m-219 -99 c0 -9 -15 -28 -32 -42 -32 -25 -33 -25 -42 -6 -8 17 -3 27 24
55 34 35 49 33 50 -7z m62 -34 c14 -14 20 -14 33 -4 9 7 18 10 21 7 9 -8 -35
-29 -46 -22 -6 3 -10 1 -10 -4 0 -6 -7 -11 -15 -11 -9 0 -15 9 -15 25 0 29 7
31 32 9z m-72 -44 c-35 -30 -50 -36 -50 -22 0 9 61 51 75 51 6 0 -6 -13 -25
-29z"/>
<path d="M1222 2620 c0 -19 4 -48 8 -65 7 -29 8 -28 8 10 0 22 -4 51 -8 65 -7
23 -8 22 -8 -10z"/>
<path d="M1472 2105 c0 -16 4 -41 8 -55 8 -24 8 -24 8 5 0 17 -4 41 -8 55 -8
24 -8 24 -8 -5z"/>
<path d="M1354 2070 c3 -14 8 -49 12 -78 4 -29 11 -55 16 -58 5 -3 7 5 4 18
-3 12 -8 43 -11 68 -3 25 -10 52 -16 60 -8 12 -9 10 -5 -10z"/>
<path d="M1830 2230 c-51 -6 -48 -7 30 -7 47 -1 96 3 110 7 31 10 -58 10 -140
0z"/>
<path d="M1785 2090 c-68 -3 -94 -8 -82 -14 23 -11 177 0 191 14 6 6 6 9 1 8
-6 -1 -55 -4 -110 -8z"/>
<path d="M2125 2187 c-4 -31 -5 -62 -3 -69 3 -7 8 15 13 50 4 35 5 66 2 68 -3
3 -8 -19 -12 -49z"/>
<path d="M1855 1560 c-4 -6 19 -10 62 -9 63 1 65 2 28 10 -55 11 -83 11 -90
-1z"/>
<path d="M410 590 c-4 -24 1 -44 12 -55 7 -7 9 -5 6 5 -3 8 -1 23 4 34 7 12 7
16 0 12 -6 -3 -13 0 -15 6 -4 9 -6 9 -7 -2z"/>
<path d="M783 473 c-17 -6 -16 -21 1 -38 11 -12 15 -10 24 10 11 25 0 37 -25
28z"/>
<path d="M720 376 c0 -9 -7 -13 -18 -11 -10 2 -25 -1 -33 -6 -9 -5 -10 -9 -2
-9 6 0 14 -8 16 -17 4 -15 5 -15 6 2 1 17 3 18 11 5 7 -11 10 -11 10 -2 0 7 5
10 10 7 6 -4 10 5 10 19 0 14 -2 26 -5 26 -3 0 -5 -6 -5 -14z"/>
<path d="M50 617 c0 -47 2 -53 22 -54 18 -2 20 0 8 7 -13 9 -13 11 0 19 12 9
12 11 -3 17 -22 8 -22 25 1 18 15 -5 15 -4 2 6 -11 9 -12 13 -2 17 15 6 6 23
-14 23 -10 0 -14 -14 -14 -53z"/>
<path d="M50 540 c0 -5 6 -10 13 -10 8 0 8 -3 1 -8 -6 -4 -11 -28 -13 -55 -1
-35 2 -49 14 -53 21 -9 33 5 15 16 -10 7 -11 10 -2 10 6 0 12 12 12 26 0 16
-4 23 -12 18 -7 -4 -8 -3 -4 5 5 7 9 23 11 37 2 18 -3 24 -16 24 -11 0 -19 -4
-19 -10z"/>
<path d="M50 350 c-13 -8 -13 -11 2 -26 12 -12 14 -23 7 -40 -5 -16 -5 -24 2
-24 6 0 7 -5 4 -10 -4 -6 -11 -8 -16 -5 -5 4 -9 1 -9 -4 0 -6 10 -10 23 -9 21
2 23 7 24 65 2 64 -5 74 -37 53z"/>
<path d="M59 203 c-1 -5 -1 -12 0 -17 1 -4 -4 -14 -10 -22 -9 -11 -8 -14 3
-14 19 0 18 -40 -2 -41 -10 0 -11 -2 -2 -6 15 -6 16 -33 1 -33 -16 0 -1 -17
21 -23 21 -5 23 14 6 42 -6 9 -5 12 1 8 6 -4 10 9 10 33 0 22 -4 37 -10 33 -5
-3 -4 4 2 15 6 11 11 23 11 26 0 9 -30 7 -31 -1z"/>
</g>
</svg>
